<?xml version="1.0" encoding="UTF-8" standalone="no"?><svg xmlns="http://www.w3.org/2000/svg" xmlns:xlink="http://www.w3.org/1999/xlink" contentScriptType="application/ecmascript" contentStyleType="text/css" height="788px" preserveAspectRatio="none" style="width:1497px;height:788px;background:#00000000;" version="1.1" viewBox="0 0 1497 788" width="1497px" zoomAndPan="magnify"><defs><filter height="300%" id="fj3sgw4j5f1d3" width="300%" x="-1" y="-1"><feGaussianBlur result="blurOut" stdDeviation="2.0"/><feColorMatrix in="blurOut" result="blurOut2" type="matrix" values="0 0 0 0 0 0 0 0 0 0 0 0 0 0 0 0 0 0 .4 0"/><feOffset dx="4.0" dy="4.0" in="blurOut2" result="blurOut3"/><feBlend in="SourceGraphic" in2="blurOut3" mode="normal"/></filter></defs><g><!--MD5=[78194114d808d3aaca9db31f547b0644]
cluster lang--><rect filter="url(#fj3sgw4j5f1d3)" height="103" style="stroke:#000000;stroke-width:1.5;fill:none;" width="153" x="999.8154" y="409"/><text fill="#000000" font-family="sans-serif" font-size="14" font-weight="bold" lengthAdjust="spacing" textLength="35" x="1058.8154" y="423.9951">lang</text><!--MD5=[fcbe93086c42b37b7edfa6c2bc099c00]
cluster antlr4ts--><rect filter="url(#fj3sgw4j5f1d3)" height="103" style="stroke:#000000;stroke-width:1.5;fill:none;" width="179" x="1199.8154" y="409"/><text fill="#000000" font-family="sans-serif" font-size="14" font-weight="bold" lengthAdjust="spacing" textLength="67" x="1255.8154" y="423.9951">antlr4ts</text><!--MD5=[72fae8e1779ba7dedab19f6352fd74e8]
cluster parser--><rect filter="url(#fj3sgw4j5f1d3)" height="103" style="stroke:#000000;stroke-width:1.5;fill:none;" width="153" x="1053.8154" y="170"/><text fill="#000000" font-family="sans-serif" font-size="14" font-weight="bold" lengthAdjust="spacing" textLength="52" x="1104.3154" y="184.9951">parser</text><!--MD5=[d132e94edea866007442d98e29e8f036]
cluster interpreter--><rect filter="url(#fj3sgw4j5f1d3)" height="637" style="stroke:#000000;stroke-width:1.5;fill:none;" width="943" x="16.8154" y="67"/><text fill="#000000" font-family="sans-serif" font-size="14" font-weight="bold" lengthAdjust="spacing" textLength="89" x="443.8154" y="81.9951">interpreter</text><!--MD5=[de7ad72e81e2efda4ee3f44f36d7101e]
cluster specialForm--><rect filter="url(#fj3sgw4j5f1d3)" height="199" style="stroke:#000000;stroke-width:1.5;fill:none;" width="333" x="442.8154" y="409"/><text fill="#000000" font-family="sans-serif" font-size="14" font-weight="bold" lengthAdjust="spacing" textLength="98" x="560.3154" y="423.9951">specialForm</text><!--MD5=[c5c689af03606f364bd4002fa05a8dae]
cluster builtIns--><rect filter="url(#fj3sgw4j5f1d3)" height="199" style="stroke:#000000;stroke-width:1.5;fill:none;" width="421" x="490.8154" y="170"/><text fill="#000000" font-family="sans-serif" font-size="14" font-weight="bold" lengthAdjust="spacing" textLength="62" x="670.3154" y="184.9951">builtIns</text><!--MD5=[f25bad76b1d2d784a511c4d2caabe8d4]
cluster stdlib--><rect filter="url(#fj3sgw4j5f1d3)" height="199" style="stroke:#000000;stroke-width:1.5;fill:none;" width="236" x="1249.8154" y="170"/><text fill="#000000" font-family="sans-serif" font-size="14" font-weight="bold" lengthAdjust="spacing" textLength="47" x="1344.3154" y="184.9951">stdlib</text><!--MD5=[d22686dd16db8ed5fdec7679b1a686cf]
entity syntax.ts--><rect fill="#FEFECE" filter="url(#fj3sgw4j5f1d3)" height="36.2969" style="stroke:#000000;stroke-width:1.5;" width="86" x="1023.8154" y="452"/><text fill="#000000" font-family="sans-serif" font-size="14" lengthAdjust="spacing" textLength="66" x="1033.8154" y="474.9951">syntax.ts</text><!--MD5=[3a981b0260dff9fa1e148d9e6d6b2e0f]
entity antlr4 library--><rect fill="#FEFECE" filter="url(#fj3sgw4j5f1d3)" height="36.2969" style="stroke:#000000;stroke-width:1.5;" width="112" x="1242.8154" y="452"/><text fill="#000000" font-family="sans-serif" font-size="14" lengthAdjust="spacing" textLength="92" x="1252.8154" y="474.9951">antlr4 library</text><!--MD5=[481c6e381c2410b37274b230e5287205]
entity parser.ts--><rect fill="#FEFECE" filter="url(#fj3sgw4j5f1d3)" height="36.2969" style="stroke:#000000;stroke-width:1.5;" width="85" x="1097.3154" y="213"/><text fill="#000000" font-family="sans-serif" font-size="14" lengthAdjust="spacing" textLength="65" x="1107.3154" y="235.9951">parser.ts</text><!--MD5=[d6dd2212978f31480a3ca0adf4f998db]
entity value.ts--><rect fill="#FEFECE" filter="url(#fj3sgw4j5f1d3)" height="36.2969" style="stroke:#000000;stroke-width:1.5;" width="76" x="346.8154" y="644"/><text fill="#000000" font-family="sans-serif" font-size="14" lengthAdjust="spacing" textLength="56" x="356.8154" y="666.9951">value.ts</text><!--MD5=[c37ba3e4375a4961a66e708bfbb6e537]
entity interpreter.ts--><rect fill="#FEFECE" filter="url(#fj3sgw4j5f1d3)" height="36.2969" style="stroke:#000000;stroke-width:1.5;" width="121" x="265.3154" y="110"/><text fill="#000000" font-family="sans-serif" font-size="14" lengthAdjust="spacing" textLength="101" x="275.3154" y="132.9951">interpreter.ts</text><!--MD5=[958a7914434545106c16735e9a5e35e5]
entity procedure.ts--><rect fill="#FEFECE" filter="url(#fj3sgw4j5f1d3)" height="36.2969" style="stroke:#000000;stroke-width:1.5;" width="113" x="78.3154" y="213"/><text fill="#000000" font-family="sans-serif" font-size="14" lengthAdjust="spacing" textLength="93" x="88.3154" y="235.9951">procedure.ts</text><!--MD5=[ef82fb81b591af51258b00b1050ecc4d]
entity quote.ts--><rect fill="#FEFECE" filter="url(#fj3sgw4j5f1d3)" height="36.2969" style="stroke:#000000;stroke-width:1.5;" width="81" x="226.3154" y="213"/><text fill="#000000" font-family="sans-serif" font-size="14" lengthAdjust="spacing" textLength="61" x="236.3154" y="235.9951">quote.ts</text><!--MD5=[5fa9659b74ae5da6207e237be03a0aa8]
entity macro.ts--><rect fill="#FEFECE" filter="url(#fj3sgw4j5f1d3)" height="36.2969" style="stroke:#000000;stroke-width:1.5;" width="84" x="342.8154" y="213"/><text fill="#000000" font-family="sans-serif" font-size="14" lengthAdjust="spacing" textLength="64" x="352.8154" y="235.9951">macro.ts</text><!--MD5=[80bc3c048d6873c4189f5f91e5d9dd75]
entity definitions.ts--><rect fill="#FEFECE" filter="url(#fj3sgw4j5f1d3)" height="36.2969" style="stroke:#000000;stroke-width:1.5;" width="116" x="485.8154" y="548"/><text fill="#000000" font-family="sans-serif" font-size="14" lengthAdjust="spacing" textLength="96" x="495.8154" y="570.9951">definitions.ts</text><!--MD5=[c19a58739b3f70c148dd4fb24a7e5708]
entity converters.ts--><rect fill="#FEFECE" filter="url(#fj3sgw4j5f1d3)" height="36.2969" style="stroke:#000000;stroke-width:1.5;" width="117" x="634.3154" y="452"/><text fill="#000000" font-family="sans-serif" font-size="14" lengthAdjust="spacing" textLength="97" x="644.3154" y="474.9951">converters.ts</text><!--MD5=[5bd706e7acf73adf44b48c7158708720]
entity evaluators.ts--><rect fill="#FEFECE" filter="url(#fj3sgw4j5f1d3)" height="36.2969" style="stroke:#000000;stroke-width:1.5;" width="113" x="486.3154" y="452"/><text fill="#000000" font-family="sans-serif" font-size="14" lengthAdjust="spacing" textLength="93" x="496.3154" y="474.9951">evaluators.ts</text><!--MD5=[3277da4343930822f6ee626dfbc90060]
entity arithmetic.ts--><rect fill="#FEFECE" filter="url(#fj3sgw4j5f1d3)" height="36.2969" style="stroke:#000000;stroke-width:1.5;" width="115" x="534.3154" y="213"/><text fill="#000000" font-family="sans-serif" font-size="14" lengthAdjust="spacing" textLength="95" x="544.3154" y="235.9951">arithmetic.ts</text><!--MD5=[9b601aedbba766ba618aad5b31b5d588]
entity control.ts--><rect fill="#FEFECE" filter="url(#fj3sgw4j5f1d3)" height="36.2969" style="stroke:#000000;stroke-width:1.5;" width="91" x="684.3154" y="213"/><text fill="#000000" font-family="sans-serif" font-size="14" lengthAdjust="spacing" textLength="71" x="694.3154" y="235.9951">control.ts</text><!--MD5=[0d2ef5792fda180ab4e551bb9ea05c82]
entity equal.ts--><rect fill="#FEFECE" filter="url(#fj3sgw4j5f1d3)" height="36.2969" style="stroke:#000000;stroke-width:1.5;" width="77" x="810.3154" y="213"/><text fill="#000000" font-family="sans-serif" font-size="14" lengthAdjust="spacing" textLength="57" x="820.3154" y="235.9951">equal.ts</text><!--MD5=[534972d4d63b4ac98513c525fc3dbcfb]
entity builtMacro--><rect fill="#FEFECE" filter="url(#fj3sgw4j5f1d3)" height="36.2969" style="stroke:#000000;stroke-width:1.5;" width="84" x="523.8154" y="309"/><text fill="#000000" font-family="sans-serif" font-size="14" lengthAdjust="spacing" textLength="64" x="533.8154" y="331.9951">macro.ts</text><!--MD5=[bee8e715f08e0d91085a2a428095555e]
entity pair.ts--><rect fill="#FEFECE" filter="url(#fj3sgw4j5f1d3)" height="36.2969" style="stroke:#000000;stroke-width:1.5;" width="67" x="643.3154" y="309"/><text fill="#000000" font-family="sans-serif" font-size="14" lengthAdjust="spacing" textLength="47" x="653.3154" y="331.9951">pair.ts</text><!--MD5=[157faafa522985e92589ec0c5561b607]
entity typePredicate.ts--><rect fill="#FEFECE" filter="url(#fj3sgw4j5f1d3)" height="36.2969" style="stroke:#000000;stroke-width:1.5;" width="142" x="745.8154" y="309"/><text fill="#000000" font-family="sans-serif" font-size="14" lengthAdjust="spacing" textLength="122" x="755.8154" y="331.9951">typePredicate.ts</text><!--MD5=[2b967df3619e75fb222e33cc423d6abb]
entity macros.prelude.ts--><rect fill="#FEFECE" filter="url(#fj3sgw4j5f1d3)" height="36.2969" style="stroke:#000000;stroke-width:1.5;" width="151" x="1296.3154" y="213"/><text fill="#000000" font-family="sans-serif" font-size="14" lengthAdjust="spacing" textLength="131" x="1306.3154" y="235.9951">macros.prelude.ts</text><!--MD5=[b0113ac5911f90612058c913bb19156d]
entity procedures.prelude.ts--><rect fill="#FEFECE" filter="url(#fj3sgw4j5f1d3)" height="36.2969" style="stroke:#000000;stroke-width:1.5;" width="180" x="1281.8154" y="309"/><text fill="#000000" font-family="sans-serif" font-size="14" lengthAdjust="spacing" textLength="160" x="1291.8154" y="331.9951">procedures.prelude.ts</text><!--MD5=[68005eafd3341124a8e0389ca4f8ceab]
entity sExpression.ts--><rect fill="#FEFECE" filter="url(#fj3sgw4j5f1d3)" height="36.2969" style="stroke:#000000;stroke-width:1.5;" width="124" x="630.8154" y="740"/><text fill="#000000" font-family="sans-serif" font-size="14" lengthAdjust="spacing" textLength="104" x="640.8154" y="762.9951">sExpression.ts</text><path d="M1054.8154,553.5 L1054.8154,578.6328 L1330.8154,578.6328 L1330.8154,563.5 L1320.8154,553.5 L1054.8154,553.5 " fill="#FBFB77" filter="url(#fj3sgw4j5f1d3)" style="stroke:#A80036;stroke-width:1.0;"/><path d="M1320.8154,553.5 L1320.8154,563.5 L1330.8154,563.5 L1320.8154,553.5 " fill="#FBFB77" style="stroke:#A80036;stroke-width:1.0;"/><text fill="#000000" font-family="sans-serif" font-size="13" lengthAdjust="spacing" textLength="255" x="1060.8154" y="570.5669">also includes files generated by antlr4ts</text><!--MD5=[1fce535eb247633e0f0b4ef14ae22a6a]
entity index.ts--><rect fill="#FEFECE" filter="url(#fj3sgw4j5f1d3)" height="36.2969" style="stroke:#000000;stroke-width:1.5;" width="78" x="1022.8154" y="7"/><text fill="#000000" font-family="sans-serif" font-size="14" lengthAdjust="spacing" textLength="58" x="1032.8154" y="29.9951">index.ts</text><!--MD5=[715059d0ec28629cadf030877d1b3173]
link syntax.ts to sExpression.ts--><path d="M1059.4954,488.057 C1036.2754,541.785 964.6224,704.8556 943.8154,720 C915.3244,740.7367 824.3984,750.0057 760.2114,754.0413 " fill="none" id="syntax.ts-to-sExpression.ts" style="stroke:#A80036;stroke-width:1.0;"/><polygon fill="#A80036" points="754.8634,754.3694,764.0911,757.8116,759.854,754.0637,763.602,749.8266,754.8634,754.3694" style="stroke:#A80036;stroke-width:1.0;"/><!--MD5=[14f43a13a2a7e3c05674ba4438284bfd]
link lang to GMN982978--><path d="M1152.8988,486.838 C1153.0095,487.0546 1153.1209,487.2728 1153.2332,487.4926 C1153.4577,487.9323 1153.6854,488.3781 1153.9161,488.83 C1154.3776,489.7336 1154.8512,490.661 1155.3357,491.6097 C1157.2735,495.4044 1159.3848,499.5386 1161.5854,503.8479 C1170.3879,521.085 1180.6204,541.123 1186.9054,553.433 " fill="none" id="lang-GMN982978" style="stroke:#A80036;stroke-width:1.0;stroke-dasharray:7.0,7.0;"/><!--MD5=[0177da44d8ca756defb88b6b6747bbb7]
link parser.ts to lang--><path d="M1140.1754,249.044 C1140.7404,275.7905 1141.8729,329.4925 1142.8779,377.1364 C1143.0035,383.0919 1143.1272,388.9527 1143.2474,394.6544 C1143.3076,397.5052 1143.3669,400.3163 1143.4252,403.0795 C1143.4543,404.4611 1143.4832,405.8307 1143.5119,407.1874 C1143.519,407.5266 1143.5261,407.865 1143.5333,408.2025 " fill="none" id="parser.ts-to-lang" style="stroke:#A80036;stroke-width:1.0;"/><polygon fill="#A80036" points="1143.5333,408.2025,1147.3425,399.1201,1143.4278,403.2036,1139.3443,399.2889,1143.5333,408.2025" style="stroke:#A80036;stroke-width:1.0;"/><!--MD5=[6130d62640f53e610a2a5666fc690ed6]
link parser.ts to antlr4ts--><path d="M1146.9854,249.223 C1153.2654,264.693 1162.3654,288.118 1168.8154,309 C1179.4504,343.4195 1189.0654,382.717 1196.0879,413.7526 C1196.9657,417.6321 1197.803,421.3824 1198.5967,424.978 C1198.9936,426.7758 1199.3796,428.535 1199.7543,430.2522 " fill="none" id="parser.ts-to-antlr4ts" style="stroke:#A80036;stroke-width:1.0;"/><polygon fill="#A80036" points="1199.7543,430.2522,1201.7437,420.6063,1198.6884,425.3671,1193.9276,422.3118,1199.7543,430.2522" style="stroke:#A80036;stroke-width:1.0;"/><!--MD5=[91b9689941d6db27cb3b05bb239d2ec1]
link converters.ts to definitions.ts--><path d="M671.9014,488.249 C657.0164,500.13 636.2834,515.894 616.8154,528 C606.7854,534.237 595.5724,540.324 585.0024,545.702 " fill="none" id="converters.ts-to-definitions.ts" style="stroke:#A80036;stroke-width:1.0;"/><polygon fill="#A80036" points="580.5164,547.962,590.3537,547.4846,584.9817,545.7122,586.754,540.3402,580.5164,547.962" style="stroke:#A80036;stroke-width:1.0;"/><!--MD5=[ae9b01c510b9867af709d1634abecfb9]
link evaluators.ts to definitions.ts--><path d="M542.9984,488.241 C543.1614,503.479 543.3984,525.807 543.5754,542.458 " fill="none" id="evaluators.ts-to-definitions.ts" style="stroke:#A80036;stroke-width:1.0;"/><polygon fill="#A80036" points="543.6334,547.868,547.538,538.8262,543.5805,542.8683,539.5385,538.9108,543.6334,547.868" style="stroke:#A80036;stroke-width:1.0;"/><!--MD5=[2397dd1592ecbeaafb9a4a6026e4368e]
link builtIns to specialForm--><!--MD5=[83a5f6a1335a07323d133d687461ae5b]
link value.ts to sExpression.ts--><path d="M422.8914,674.621 C475.2044,690.5863 569.8794,719.4806 632.0484,738.4542 " fill="none" id="value.ts-to-sExpression.ts" style="stroke:#A80036;stroke-width:1.0;"/><polygon fill="#A80036" points="636.8394,739.9165,629.3996,733.4628,632.0573,738.4565,627.0636,741.1142,636.8394,739.9165" style="stroke:#A80036;stroke-width:1.0;"/><!--MD5=[17416a14cf56802c44e0447796c95940]
link interpreter.ts to procedure.ts--><path d="M265.0874,135.023 C246.2214,138.682 225.9064,144.56 208.8154,154 C184.5914,167.379 163.3094,191.237 149.8614,208.662 " fill="none" id="interpreter.ts-to-procedure.ts" style="stroke:#A80036;stroke-width:1.0;"/><polygon fill="#A80036" points="146.6144,212.943,155.2398,208.1888,149.6356,208.959,148.8654,203.3548,146.6144,212.943" style="stroke:#A80036;stroke-width:1.0;"/><!--MD5=[6be901c7de4bdf117e38d09cf97920f3]
link interpreter.ts to quote.ts--><path d="M315.8064,146.133 C305.8054,163.255 290.3924,189.639 279.5304,208.233 " fill="none" id="interpreter.ts-to-quote.ts" style="stroke:#A80036;stroke-width:1.0;"/><polygon fill="#A80036" points="276.8734,212.783,284.8664,207.0287,279.3951,208.4655,277.9584,202.9941,276.8734,212.783" style="stroke:#A80036;stroke-width:1.0;"/><!--MD5=[1ff1093604f28428d28af643658a10c6]
link interpreter.ts to macro.ts--><path d="M335.8244,146.133 C345.8254,163.255 361.2384,189.639 372.1004,208.233 " fill="none" id="interpreter.ts-to-macro.ts" style="stroke:#A80036;stroke-width:1.0;"/><polygon fill="#A80036" points="374.7574,212.783,373.6724,202.9941,372.2357,208.4655,366.7644,207.0287,374.7574,212.783" style="stroke:#A80036;stroke-width:1.0;"/><!--MD5=[fe2c805408a7a4f763f280c618bdbf11]
link interpreter.ts to specialForm--><path d="M386.4114,145.281 C387.5534,145.528 388.6894,145.768 389.8154,146 C401.6964,148.45 435.7894,144.904 443.8154,154 C466.7964,180.046 468.6987,257.7737 464.7804,329.4951 C463.8008,347.4255 462.4575,364.9804 460.9888,381.2586 C460.2544,389.3977 459.4887,397.2176 458.7215,404.6056 C458.6256,405.5291 458.5296,406.4458 458.4337,407.3556 C458.3858,407.8105 458.3379,408.2637 458.2899,408.7151 " fill="none" id="interpreter.ts-to-specialForm" style="stroke:#A80036;stroke-width:1.0;"/><polygon fill="#A80036" points="458.2899,408.7151,463.2178,400.1877,458.8178,403.743,455.2625,399.3431,458.2899,408.7151" style="stroke:#A80036;stroke-width:1.0;"/><!--MD5=[4fa7a774faa129f35a2b5748f1db391c]
link interpreter.ts to builtIns--><path d="M386.3904,145.392 C387.5394,145.605 388.6824,145.808 389.8154,146 C401.3514,147.955 486.6394,145.63 494.8154,154 C497.6775,156.93 499.9051,160.2648 501.6099,163.8635 C502.4623,165.6628 503.184,167.5281 503.789,169.4417 C503.8268,169.5613 503.8641,169.6811 503.901,169.8011 " fill="none" id="interpreter.ts-to-builtIns" style="stroke:#A80036;stroke-width:1.0;"/><polygon fill="#A80036" points="503.901,169.8011,505.0784,160.0228,502.4311,165.022,497.4319,162.3747,503.901,169.8011" style="stroke:#A80036;stroke-width:1.0;"/><!--MD5=[78d52e4adbc93e1568400fcc983b496a]
link specialForm to value.ts--><path d="M442.7288,542.1254 C442.677,542.2883 442.625,542.4512 442.5729,542.6141 C442.4686,542.94 442.3637,543.2659 442.2582,543.5918 C440.5701,548.806 438.7267,554.0233 436.7692,559.2017 C432.854,569.5585 428.4819,579.7596 423.9817,589.4695 C414.9812,608.8893 405.4679,626.344 398.0714,639.149 " fill="none" id="specialForm-to-value.ts" style="stroke:#A80036;stroke-width:1.0;"/><polygon fill="#A80036" points="395.4124,643.71,403.4009,637.9495,397.9307,639.3905,396.4897,633.9202,395.4124,643.71" style="stroke:#A80036;stroke-width:1.0;"/><!--MD5=[58e9b24c10c6d0078f96c2b0d26172d7]
link builtIns to value.ts--><path d="M911.8174,319.5933 C911.9189,319.7749 912.0184,319.9563 912.1161,320.1375 C912.5067,320.8625 912.867,321.5849 913.1983,322.3054 C913.8609,323.7465 914.4076,325.1798 914.8491,326.6101 C916.6151,332.3315 916.6978,338.0052 915.7832,343.9344 C913.9539,355.7928 908.1354,368.673 903.8154,385 C872.5534,503.15 870.3854,557.547 767.8154,624 C712.7084,659.702 516.3884,662.391 428.2274,661.715 " fill="none" id="builtIns-to-value.ts" style="stroke:#A80036;stroke-width:1.0;"/><polygon fill="#A80036" points="423.0894,661.671,432.0536,665.7506,428.0892,661.7153,432.1245,657.7509,423.0894,661.671" style="stroke:#A80036;stroke-width:1.0;"/><!--MD5=[d3314dca03cb449de413da379f8cbdbc]
link interpreter.ts to value.ts--><path d="M265.1214,130.747 C191.4084,133.474 75.0808,139.96 60.8154,154 C6,207.948 41.8154,249.091 41.8154,326 C41.8154,326 41.8154,326 41.8154,471 C41.8154,606.627 249.5644,646.229 341.6984,657.123 " fill="none" id="interpreter.ts-to-value.ts" style="stroke:#A80036;stroke-width:1.0;"/><polygon fill="#A80036" points="346.7974,657.71,338.3149,652.7052,341.8303,657.1372,337.3984,660.6525,346.7974,657.71" style="stroke:#A80036;stroke-width:1.0;"/><!--MD5=[10aa98fc8efc6a46e600dfaca9c0f826]
link macro.ts to value.ts--><path d="M384.8154,249.082 C384.8154,316.348 384.8154,562.96 384.8154,638.715 " fill="none" id="macro.ts-to-value.ts" style="stroke:#A80036;stroke-width:1.0;"/><polygon fill="#A80036" points="384.8154,643.869,388.8154,634.869,384.8154,638.869,380.8154,634.869,384.8154,643.869" style="stroke:#A80036;stroke-width:1.0;"/><!--MD5=[39d923224547fd6a7a74206c8e07f348]
link procedure.ts to value.ts--><path d="M141.8334,249.127 C165.5334,305.868 246.7424,491.606 346.8154,624 C351.0634,629.619 356.1654,635.184 361.2324,640.226 " fill="none" id="procedure.ts-to-value.ts" style="stroke:#A80036;stroke-width:1.0;"/><polygon fill="#A80036" points="365.0854,643.971,361.4184,634.8303,361.4995,640.4865,355.8432,640.5677,365.0854,643.971" style="stroke:#A80036;stroke-width:1.0;"/><!--MD5=[d41aa039386c6e820d022cb37b259e65]
link quote.ts to value.ts--><path d="M271.5144,249.082 C290.0164,316.348 357.8484,562.96 378.6854,638.715 " fill="none" id="quote.ts-to-value.ts" style="stroke:#A80036;stroke-width:1.0;"/><polygon fill="#A80036" points="380.1034,643.869,381.5734,634.1305,378.7774,639.048,373.8599,636.252,380.1034,643.869" style="stroke:#A80036;stroke-width:1.0;"/><!--MD5=[26dd2250e33f31ff238f43f6dfff1ef1]
link interpreter to syntax.ts--><path d="M959.834,152.7069 C959.9357,153.0076 960.0382,153.3108 960.1416,153.6164 C961.7954,158.5058 963.66,164.0186 965.7026,170.0574 C973.8729,194.2127 984.8902,226.7853 996.6513,261.5571 C1020.1734,331.1008 1046.6704,409.441 1059.3154,446.832 " fill="none" id="interpreter-to-syntax.ts" style="stroke:#A80036;stroke-width:1.0;"/><polygon fill="#A80036" points="1061.0454,451.928,1061.9444,442.1203,1059.4402,447.1927,1054.3678,444.6885,1061.0454,451.928" style="stroke:#A80036;stroke-width:1.0;"/><!--MD5=[677064c5455bd996f413e3bd4f1e6a28]
link macros.prelude.ts to procedures.prelude.ts--><!--MD5=[447232e3b7ec0d0b0c44ee4f7de62e74]
link index.ts to parser--><path d="M1061.8154,43.042 C1061.8154,67.1735 1061.8154,112.8407 1061.8154,152.9987 C1061.8154,158.0185 1061.8154,162.9522 1061.8154,167.7469 C1061.8154,168.3463 1061.8154,168.9435 1061.8154,169.5384 " fill="none" id="index.ts-to-parser" style="stroke:#A80036;stroke-width:1.0;"/><polygon fill="#A80036" points="1061.8154,169.5384,1065.8154,160.5384,1061.8154,164.5384,1057.8154,160.5384,1061.8154,169.5384" style="stroke:#A80036;stroke-width:1.0;"/><!--MD5=[9bb49a63d115b1f0d18623ec7e53bc7a]
link index.ts to interpreter--><path d="M1043.1554,43.133 C1027.7104,57.316 1005.3422,77.8543 986.6073,95.056 C977.2398,103.6569 968.7807,111.4236 962.5496,117.1448 C961.7707,117.8599 961.0266,118.5431 960.3199,119.192 C960.2316,119.2731 960.1438,119.3536 960.0566,119.4337 " fill="none" id="index.ts-to-interpreter" style="stroke:#A80036;stroke-width:1.0;"/><polygon fill="#A80036" points="960.0566,119.4337,969.3914,116.2932,963.7397,116.0521,963.9809,110.4004,960.0566,119.4337" style="stroke:#A80036;stroke-width:1.0;"/><!--MD5=[921e7a1ae2966169fef63cd41c337d93]
link index.ts to stdlib--><path d="M1082.2754,43.29 C1109.9254,67.052 1160.1954,111.684 1198.8154,154 C1212.7754,169.299 1227.0554,187.6082 1238.0691,202.4221 C1240.8226,206.1256 1243.3719,209.6106 1245.661,212.7755 C1246.8056,214.3579 1247.8851,215.8604 1248.8926,217.2701 C1249.1444,217.6225 1249.3918,217.9691 1249.6345,218.3097 " fill="none" id="index.ts-to-stdlib" style="stroke:#A80036;stroke-width:1.0;"/><polygon fill="#A80036" points="1249.6345,218.3097,1247.6688,208.659,1246.7327,214.2379,1241.1539,213.3019,1249.6345,218.3097" style="stroke:#A80036;stroke-width:1.0;"/><!--MD5=[496e5b73fc3ea4156e964aa5daefbc3f]
link arithmetic.ts to control.ts--><!--MD5=[48b40648ab61982d973856a1a70cdb22]
link control.ts to equal.ts--><!--MD5=[944baccdb0101856da757aa36dec02c7]
link arithmetic.ts to builtMacro--><!--MD5=[0eadcd1403af42f29ed4e29aad4f2bd4]
link builtMacro to pair.ts--><!--MD5=[d8f71838bcf79ab08bb02482b4cc6f86]
link pair.ts to typePredicate.ts--><!--MD5=[bc9d1513fe80f9ab48ae73c6e670e5a1]
@startuml
skinparam BackgroundColor transparent
skinparam componentStyle rectangle

[sExpression.ts]

component lang {
    [syntax.ts] - -> [sExpression.ts]
}
note bottom of lang : also includes files generated by antlr4ts

component antlr4ts {
    [antlr4 library]
}

component parser {
    [parser.ts] - - -> lang
    [parser.ts] - - -> antlr4ts
}

component interpreter {
    component specialForm {
        [definitions.ts]
        [converters.ts] - -> [definitions.ts]
        [evaluators.ts] - -> [definitions.ts]
    }
    component builtIns {
        [arithmetic.ts]
        [control.ts]
        [equal.ts]
        [macro.ts] as builtMacro
        [pair.ts]
        [typePredicate.ts]
    }
    builtIns -[hidden]- -> specialForm

    [value.ts] - -> [sExpression.ts]
    [interpreter.ts] - -> [procedure.ts]
    [interpreter.ts] - -> [quote.ts]
    [macro.ts]
    [interpreter.ts] - -> [macro.ts]

    [interpreter.ts] - -> specialForm
    [interpreter.ts] - -> builtIns

    specialForm - - -> [value.ts]
    builtIns - - -> [value.ts]
    [interpreter.ts] - - -> [value.ts]
    [macro.ts] - - -> [value.ts]
    [procedure.ts] - - -> [value.ts]
    [quote.ts] - - -> [value.ts]
}

interpreter - -> [syntax.ts]

component stdlib {
    [macros.prelude.ts] -[hidden]-> [procedures.prelude.ts]
}

[index.ts] - - -> parser
[index.ts] - -> interpreter
[index.ts] - - -> stdlib
@enduml

PlantUML version 1.2021.5beta3(Unknown compile time)
(GPL source distribution)
Java Runtime: Java(TM) SE Runtime Environment
JVM: Java HotSpot(TM) 64-Bit Server VM
Default Encoding: UTF-8
Language: en
Country: US
--></g></svg>